<?xml version="1.0" encoding="utf-8"?>
<!-- Generator: Adobe Illustrator 22.1.0, SVG Export Plug-In . SVG Version: 6.00 Build 0)  -->
<svg version="1.1"
	 id="Layer_1" xmlns:cc="http://creativecommons.org/ns#" xmlns:dc="http://purl.org/dc/elements/1.1/" xmlns:inkscape="http://www.inkscape.org/namespaces/inkscape" xmlns:rdf="http://www.w3.org/1999/02/22-rdf-syntax-ns#" xmlns:sodipodi="http://sodipodi.sourceforge.net/DTD/sodipodi-0.dtd" xmlns:svg="http://www.w3.org/2000/svg"
	 xmlns="http://www.w3.org/2000/svg" xmlns:xlink="http://www.w3.org/1999/xlink" x="0px" y="0px" viewBox="0 0 100 125"
	 style="enable-background:new 0 0 100 125;" xml:space="preserve">
<g transform="translate(0,-952.36218)">
	<path d="M69.8,964.4c-0.5,0.1-0.8,0.5-0.8,1v73h-9v-53c0-0.6-0.4-1-1-1H41c-0.1,0-0.1,0-0.2,0c-0.5,0.1-0.8,0.5-0.8,1v53h-9v-33
		c0-0.6-0.4-1-1-1H12c-0.1,0-0.1,0-0.2,0c-0.5,0.1-0.8,0.5-0.8,1v33H8c-0.1,0-0.1,0-0.2,0c-0.6,0.1-1,0.5-0.9,1.1s0.5,1,1.1,0.9h84
		c0.6,0,1-0.4,1-1c0-0.6-0.4-1-1-1c0,0,0,0,0,0H71v-72h16v67c0,0.6,0.4,1,1,1s1-0.4,1-1c0,0,0,0,0,0v-68c0-0.6-0.4-1-1-1H70
		C69.9,964.4,69.9,964.4,69.8,964.4z M42,986.4h16v52H42V986.4z M13,1006.4h16v32H13V1006.4z"/>
</g>
</svg>
