<?xml version="1.0" encoding="utf-8"?>
<!-- Generator: Adobe Illustrator 22.1.0, SVG Export Plug-In . SVG Version: 6.00 Build 0)  -->
<svg version="1.1"
	 id="Layer_1" xmlns:cc="http://creativecommons.org/ns#" xmlns:dc="http://purl.org/dc/elements/1.1/" xmlns:inkscape="http://www.inkscape.org/namespaces/inkscape" xmlns:rdf="http://www.w3.org/1999/02/22-rdf-syntax-ns#" xmlns:sodipodi="http://sodipodi.sourceforge.net/DTD/sodipodi-0.dtd" xmlns:svg="http://www.w3.org/2000/svg"
	 xmlns="http://www.w3.org/2000/svg" xmlns:xlink="http://www.w3.org/1999/xlink" x="0px" y="0px" viewBox="0 0 100 125"
	 style="enable-background:new 0 0 100 125;" xml:space="preserve">
<g transform="translate(0,-952.36218)">
	<path d="M24,959.4c-0.2,0-0.5,0.1-0.7,0.2c-0.2,0.2-0.9,0.8-0.9,0.8c-2.1,2.1-3.4,5.3-3.4,9c0,4.2,1.7,7.9,4.4,9.8
		c0.3,0.3,0.8,0.3,1.2,0c2.7-2,4.4-5.6,4.4-9.8c0-3.7-1.3-6.9-3.4-9c0,0-0.7-0.6-1-0.8C24.4,959.4,24.2,959.4,24,959.4z M50,959.4
		c-0.2,0-0.5,0.1-0.7,0.2c-0.2,0.2-0.9,0.8-0.9,0.8c-2.1,2.1-3.4,5.3-3.4,9c0,4.2,1.7,7.9,4.4,9.8c0.3,0.3,0.8,0.3,1.2,0
		c2.7-2,4.4-5.6,4.4-9.8c0-3.7-1.3-6.9-3.4-9c0,0-0.7-0.6-1-0.8C50.4,959.4,50.2,959.4,50,959.4z M76,959.4c-0.2,0-0.5,0.1-0.7,0.2
		c-0.2,0.2-0.9,0.8-0.9,0.8c-2.1,2.1-3.4,5.3-3.4,9c0,4.2,1.7,7.9,4.4,9.8c0.3,0.3,0.8,0.3,1.2,0c2.7-2,4.4-5.6,4.4-9.8
		c0-3.7-1.3-6.9-3.4-9c0,0-0.7-0.6-1-0.8C76.4,959.4,76.2,959.4,76,959.4z M24,961.7c1.7,1.6,3,4.4,3,7.6c0,3.3-1.3,6-3,7.6
		c-1.7-1.6-3-4.3-3-7.6C21,966.1,22.3,963.3,24,961.7z M50,961.7c1.7,1.6,3,4.4,3,7.6c0,3.3-1.3,6-3,7.6c-1.7-1.6-3-4.3-3-7.6
		C47,966.1,48.3,963.3,50,961.7z M76,961.7c1.7,1.6,3,4.4,3,7.6c0,3.3-1.3,6-3,7.6c-1.7-1.6-3-4.3-3-7.6
		C73,966.1,74.3,963.3,76,961.7z M17,986.4v13h-4.2c-3.2,0-5.8,2.6-5.8,5.8v10.2c0,4.1,2,7.7,5,10.2v18.8c0,0.5,0.5,1,1,1h74
		c0.5,0,1-0.5,1-1v-18.8c3-2.5,5-6.1,5-10.2v-10.2c0-3.2-2.6-5.8-5.8-5.8H83v-13c0-0.5-0.4-0.9-0.8-1c-0.1,0-0.1,0-0.2,0H70
		c-0.5,0-1,0.5-1,1v13H57v-13c0-0.5-0.5-1-1-1H44c-0.7,0-1,0.6-1,1v13H31v-13c0-0.5-0.5-1-1-1H18C17.3,985.4,17,985.9,17,986.4z
		 M19,987.4h10v12H19V987.4z M45,987.4h10v12H45V987.4z M71,987.4h10v12H71V987.4z M12.8,1001.4h57h12.3h5c2.1,0,3.8,1.7,3.8,3.8
		v10.2c0,6.7-6.7,12-13,12c-5.2,0-11.3-2.9-13.1-7.4c-0.3-0.8-1.6-0.8-1.9,0c-1.8,4.6-5.9,7.2-13,7.4c0,0,0,0-0.1,0
		c-7.1-0.2-11.2-2.8-13-7.4c-0.3-0.8-1.6-0.8-1.9,0c-1.8,4.4-7.8,7.4-13.1,7.4c-6.3,0-13-5.3-13-12v-10.2
		C9,1003.1,10.7,1001.4,12.8,1001.4z M36,1022.2c2.5,4.4,7.2,7,14,7.2c0,0,0,0,0.1,0c6.8-0.2,11.5-2.8,14-7.2
		c2.8,4.5,8.6,7.2,14,7.2c2.8,0,5.6-0.8,8-2.3v16.3H14V1027c2.4,1.5,5.2,2.3,8,2.3C27.3,1029.4,33.2,1026.8,36,1022.2z"/>
</g>
</svg>
