<?xml version="1.0" encoding="utf-8"?>
<!-- Generator: Adobe Illustrator 22.1.0, SVG Export Plug-In . SVG Version: 6.00 Build 0)  -->
<svg version="1.1"
	 id="Layer_1" xmlns:cc="http://creativecommons.org/ns#" xmlns:dc="http://purl.org/dc/elements/1.1/" xmlns:inkscape="http://www.inkscape.org/namespaces/inkscape" xmlns:rdf="http://www.w3.org/1999/02/22-rdf-syntax-ns#" xmlns:sodipodi="http://sodipodi.sourceforge.net/DTD/sodipodi-0.dtd" xmlns:svg="http://www.w3.org/2000/svg"
	 xmlns="http://www.w3.org/2000/svg" xmlns:xlink="http://www.w3.org/1999/xlink" x="0px" y="0px" viewBox="0 0 100 125"
	 style="enable-background:new 0 0 100 125;" xml:space="preserve">
<g transform="translate(0,-952.36218)">
	<path d="M50,977.4c-4.5,0-8.6,2-11.3,5.2c-2.3-2-5.4-3.2-8.7-3.2c-7.3,0-13,5.7-13,13c0,3.8,1.6,7.2,4.2,9.7
		C13,1005.4,7,1013.3,7,1022.4c0,0.6,0.4,1,1,1h16.2c-0.1,1-0.2,2-0.2,3c0,0.6,0.4,1,1,1h50c0.6,0,1-0.4,1-1c0-1-0.1-2-0.2-3H92
		c0.6,0,1-0.4,1-1c0-9.1-6-17-14.2-20.3c2.6-2.4,4.2-5.9,4.2-9.7c0-7.3-5.7-13-13-13c-3.3,0-6.3,1.2-8.7,3.2
		C58.6,979.4,54.5,977.4,50,977.4z M50,979.4c7.2,0,13,5.8,13,13c0,4.3-2.3,7.8-5.6,10.2c-0.4,0.3-0.5,1-0.2,1.4
		c0.1,0.2,0.3,0.3,0.5,0.4c9.1,3,15.8,11.4,16.2,21.1H26.1c0.4-9.6,7.1-18,16.2-21.1c0.5-0.2,0.8-0.7,0.6-1.3
		c-0.1-0.2-0.2-0.4-0.4-0.5c-3.3-2.4-5.6-5.9-5.6-10.2C37,985.2,42.8,979.4,50,979.4z M30,981.4c2.8,0,5.4,1.1,7.3,2.8
		c0,0,0.1,0,0.1,0.1c-1.5,2.4-2.4,5.2-2.4,8.2c0,4.4,2.1,8,5.2,10.7c-7.8,3.2-13.8,10.1-15.6,18.3H9.1c0.4-8.3,6.3-15.4,14.2-18.1
		c0.5-0.2,0.8-0.7,0.6-1.3c-0.1-0.2-0.2-0.4-0.4-0.5c-2.8-2-4.6-5.4-4.6-9.2C19,986.1,23.7,981.4,30,981.4z M70,981.4
		c6.3,0,11,4.7,11,11c0,3.8-1.8,7.2-4.6,9.2c-0.4,0.3-0.5,1-0.2,1.4c0.1,0.2,0.3,0.3,0.5,0.4c7.9,2.6,13.8,9.8,14.2,18.1H75.4
		c-1.8-8.2-7.8-15.1-15.6-18.3c3-2.7,5.2-6.3,5.2-10.7c0-3-0.9-5.8-2.4-8.2c0,0,0.1,0,0.1-0.1C64.6,982.4,67.2,981.4,70,981.4z"/>
</g>
</svg>
